<svg width="241" height="63" viewBox="0 0 241 63" fill="none" xmlns="http://www.w3.org/2000/svg">
<g id="Logo">
<path id="Vector" d="M4.6394 13H7.17517C7.40763 13.0019 7.63745 13.0514 7.85146 13.1456C8.06547 13.2397 8.25948 13.3767 8.42236 13.5487C8.58525 13.7207 8.71382 13.9244 8.80072 14.148C8.88762 14.3716 8.93113 14.6108 8.92878 14.8519C8.92878 15.8741 8.14304 16.7037 7.17695 16.7037H4.46439C3.60009 16.7037 3.57151 17.1667 3.57151 17.6296V22.2593H3.58401C3.57667 23.8716 3.57667 25.484 3.58401 27.0963L3.57866 27.8148H5.53038e-06V17.8352C-0.00189389 16.5564 0.485548 15.329 1.35535 14.4225C2.22515 13.516 3.40624 13.0044 4.6394 13ZM0.0321489 29.6667C0.33037 36.8407 4.25546 41.7667 10.7145 42.5278V51.1889C10.7145 57.6907 15.3271 63 21.4291 63C27.531 63 32.1436 57.7093 32.1436 51.1889V44.4815C32.1436 40.6185 33.7579 38.9259 37.5008 38.9259C40.5902 38.9259 42.3456 40.0556 42.7617 42.9815C41.5771 43.4415 40.5876 44.3212 39.9682 45.4649C39.3489 46.6087 39.1396 47.9428 39.3775 49.2311C39.6154 50.5195 40.2851 51.679 41.268 52.5046C42.251 53.3302 43.4839 53.7686 44.7486 53.7423C46.0133 53.7159 47.2282 53.2265 48.1784 52.3606C49.1286 51.4948 49.7528 50.3083 49.9406 49.011C50.1284 47.7138 49.8677 46.3895 49.2045 45.2725C48.5414 44.1555 47.5186 43.3177 46.3171 42.9074C45.6742 38.4741 42.3045 35.25 37.5008 35.2222C32.2722 35.1907 28.5721 38.9259 28.5721 44.6667V51.1889C28.5721 55.4204 25.3899 59.2963 21.4291 59.2963C17.4683 59.2963 14.286 55.4204 14.286 51.1889V42.5278C20.7505 41.7741 24.672 36.8463 24.9791 29.6667H21.3505C20.7933 35.8389 17.3915 38.9259 12.5074 38.9259C7.62339 38.9259 4.23939 35.8389 3.66437 29.6667H0.0321489ZM44.6439 50.963C43.9334 50.963 43.2521 50.6703 42.7498 50.1494C42.2474 49.6284 41.9652 48.9219 41.9652 48.1852C41.9652 47.4485 42.2474 46.7419 42.7498 46.221C43.2521 45.7001 43.9334 45.4074 44.6439 45.4074C45.3543 45.4074 46.0356 45.7001 46.5379 46.221C47.0403 46.7419 47.3225 47.4485 47.3225 48.1852C47.3225 48.9219 47.0403 49.6284 46.5379 50.1494C46.0356 50.6703 45.3543 50.963 44.6439 50.963ZM21.4291 27.8148H25.0006C25.0059 26.1259 25.0131 22.7148 25.0006 22.2907V17.8333C25.002 16.5548 24.5143 15.328 23.6446 14.4219C22.7748 13.5158 21.594 13.0044 20.3612 13H17.8254C17.5929 13.0019 17.3631 13.0514 17.1491 13.1456C16.9351 13.2397 16.7411 13.3767 16.5782 13.5487C16.4153 13.7207 16.2867 13.9244 16.1999 14.148C16.113 14.3716 16.0694 14.6108 16.0718 14.8519C16.0718 15.8741 16.8575 16.7037 17.8236 16.7037H20.5362C21.4005 16.7037 21.4291 17.1667 21.4291 17.6296V27.8148Z" fill="#2F98C2"/>
<text id="MEDKIT.COM" fill="#2F98C2" xml:space="preserve" style="white-space: pre" font-family="Roboto" font-size="32" font-weight="bold" letter-spacing="0em"><tspan x="48" y="29.9375">MEDKIT.COM</tspan></text>
<text id="Health is wealth" fill="#2F98C2" xml:space="preserve" style="white-space: pre" font-family="Roboto" font-size="20" letter-spacing="0em"><tspan x="73" y="55.3359">Health is wealth</tspan></text>
</g>
</svg>
